<?xml version="1.0" standalone="no"?>
<!DOCTYPE svg PUBLIC "-//W3C//DTD SVG 1.1//EN" "http://www.w3.org/Graphics/SVG/1.1/DTD/svg11.dtd" >
<svg xmlns="http://www.w3.org/2000/svg">
<metadata></metadata>
<defs>
<font id="interstateblackregular" horiz-adv-x="1208" >
<font-face units-per-em="2048" ascent="1638" descent="-410" />
<missing-glyph horiz-adv-x="675" />
<glyph horiz-adv-x="0" />
<glyph unicode="&#xd;" horiz-adv-x="675" />
<glyph unicode=" "  horiz-adv-x="675" />
<glyph unicode="&#x09;" horiz-adv-x="675" />
<glyph unicode="&#xa0;" horiz-adv-x="675" />
<glyph unicode="!" horiz-adv-x="716" d="M145 190q0 90 60.5 149.5t152.5 59.5t152.5 -59.5t60.5 -149.5t-60 -151.5t-153 -61.5q-92 0 -152.5 61.5t-60.5 151.5zM156 922v512h405v-512l-67 -410h-271z" />
<glyph unicode="&#x22;" horiz-adv-x="1269" d="M117 1434h436l-80 -670h-276zM717 1434h436l-80 -670h-276z" />
<glyph unicode="#" horiz-adv-x="1638" d="M102 250v313h215v307h-215v314h215v250h373v-250h258v250h373v-250h215v-314h-215v-307h215v-313h-215v-250h-373v250h-258v-250h-373v250h-215zM668 537h303v360h-303v-360z" />
<glyph unicode="$" horiz-adv-x="1353" d="M70 162l192 301q84 -57 199 -98q127 -45 221 -46q104 0 145 20.5t41 72.5q0 41 -51 69.5t-192 61.5q-276 63 -385 153q-127 102 -127 308q0 164 100 274.5t281 148.5v211h385v-208q205 -33 370 -150l-192 -301q-199 135 -400 135q-147 0 -147 -88q0 -39 48 -63.5 t187 -57.5q281 -66 396 -164q125 -106 125 -301q0 -362 -387 -434v-211h-385v207q-238 39 -424 160z" />
<glyph unicode="%" horiz-adv-x="2211" d="M61 1008q0 215 123 335q115 113 303 113t301 -110q121 -119 121 -334t-123 -336q-115 -113 -303 -113t-301 111q-121 119 -121 334zM362 1012q0 -125 30 -175.5t95 -50.5q66 0 93.5 48.5t27.5 173.5q0 225 -123 225q-66 0 -94 -45q-29 -51 -29 -176zM510 0l879 1434h313 l-879 -1434h-313zM1303 422q0 215 122 336q115 113 304 112q188 0 301 -110q120 -119 120 -334t-122 -336q-115 -113 -304 -113q-188 0 -301 111q-121 119 -120 334zM1604 426q0 -125 29.5 -175t95.5 -50t93 48t27 173q0 225 -123 225q-66 0 -94 -45q-29 -51 -28 -176z" />
<glyph unicode="&#x26;" horiz-adv-x="1478" d="M53 365q0 244 299 411l-12 15q-129 150 -129 280q0 186 139 289q133 96 355 96q258 0 479 -131l-162 -295q-172 96 -322 96q-100 0 -100 -61q0 -45 47 -100l307 -357q51 84 127 226l299 -156q-119 -201 -209 -320l312 -358h-449l-102 117q-195 -139 -447 -140 q-195 0 -307 91q-125 100 -125 297zM428 414q0 -121 156 -121q81 0 151 47l-200 227q-106 -74 -107 -153z" />
<glyph unicode="'" horiz-adv-x="702" d="M127 1434h448l-79 -670h-289z" />
<glyph unicode="(" horiz-adv-x="880" d="M119 621q0 426 383 858l264 -158q-121 -186 -172 -332q-55 -164 -55 -358q0 -201 55 -365q51 -146 172 -334l-264 -157q-383 432 -383 846z" />
<glyph unicode=")" horiz-adv-x="880" d="M115 -68q121 186 172 334q55 162 55 357q0 201 -55 364q-51 145 -172 334l264 158q383 -432 383 -846q0 -426 -383 -858z" />
<glyph unicode="*" horiz-adv-x="1126" d="M61 815l349 123l-349 125l144 248l272 -226l-55 349h283l-58 -347l273 226l145 -246l-354 -127l354 -127l-145 -248l-273 223l58 -346h-283l55 351l-272 -222z" />
<glyph unicode="+" horiz-adv-x="1323" d="M113 528v353h362v379h373v-379h362v-353h-362v-378h-373v378h-362z" />
<glyph unicode="," horiz-adv-x="643" d="M117 -254l28 682h420l-196 -682h-252z" />
<glyph unicode="-" horiz-adv-x="991" d="M139 541v385h713v-385h-713z" />
<glyph unicode="." horiz-adv-x="643" d="M86 213q0 100 66.5 165.5t169.5 65.5q102 0 168.5 -65.5t66.5 -165.5t-66.5 -168t-168.5 -68q-100 0 -168 68t-68 168z" />
<glyph unicode="/" horiz-adv-x="1044" d="M-33 -184l721 1802h389l-721 -1802h-389z" />
<glyph unicode="0" horiz-adv-x="1466" d="M84 715q0 348 186 549q176 193 465 192q289 0 463 -190q184 -199 184 -547t-186 -549q-176 -193 -465 -193t-463 191q-184 199 -184 547zM492 719q0 -399 243 -400q240 1 240 396q0 399 -244 399q-240 0 -239 -395z" />
<glyph unicode="1" horiz-adv-x="862" d="M82 987v252q137 8 202.5 51t96.5 144h332v-1434h-389v987h-242z" />
<glyph unicode="2" horiz-adv-x="1433" d="M109 0q8 344 170 559q139 188 428 318q113 49 143.5 76.5t30.5 70.5q0 98 -160 98q-209 0 -426 -145l-182 293q291 186 614 186q543 0 543 -403q0 -147 -68 -238q-74 -100 -272 -192q-348 -162 -398 -299h748v-324h-1171z" />
<glyph unicode="3" horiz-adv-x="1402" d="M78 197l205 258q195 -150 407 -150q236 0 236 146q0 76 -46 106.5t-157 30.5h-207v309h184q94 0 130 25.5t36 95.5q0 117 -198 117q-186 0 -357 -123l-188 258q242 186 555 186q573 0 573 -412q0 -188 -190 -280q250 -57 250 -309q0 -477 -629 -478q-354 0 -604 220z" />
<glyph unicode="4" horiz-adv-x="1517" d="M84 256v291l772 887h393v-852h185v-336h-185v-246h-356v256h-809zM518 575q109 6 268 7h107v141q0 209 6 309q-51 -78 -172 -223l-20 -25q-117 -139 -189 -209z" />
<glyph unicode="5" horiz-adv-x="1456" d="M92 152l162 297q238 -141 461 -142q252 0 252 182q0 168 -193 168q-150 0 -264 -82l-340 115l49 744h1045v-324h-723l-13 -199q131 63 310 64q238 0 372 -117q140 -125 140 -358q0 -250 -169 -386.5t-476 -136.5q-324 0 -613 175z" />
<glyph unicode="6" horiz-adv-x="1425" d="M82 571q0 344 227 584q285 301 842 301v-326q-500 0 -680 -276q152 84 369 84q231 0 364 -109q142 -116 142 -335q0 -242 -174.5 -379.5t-479.5 -137.5q-279 0 -440 150q-170 156 -170 444zM461 465q0 -174 252 -174q115 0 182.5 46t67.5 130t-64.5 131t-177.5 47 q-260 0 -260 -180z" />
<glyph unicode="7" horiz-adv-x="1417" d="M100 1110v324h1186v-287q-299 -274 -407 -543q-92 -231 -93 -604h-389q2 365 107 633q98 262 309 477h-713z" />
<glyph unicode="8" horiz-adv-x="1495" d="M94 446q0 225 223 316q-162 96 -161 268q0 201 168 316q160 111 426 110q266 0 424 -110q166 -115 165 -316q0 -162 -161 -264q88 -35 145 -104q78 -91 78 -216q0 -217 -177 -343t-479 -126q-301 0 -476 126t-175 343zM475 451q0 -76 71.5 -124t203.5 -48q131 0 200.5 48 t69.5 124t-71.5 123t-203.5 47q-133 0 -201.5 -46.5t-68.5 -123.5zM537 1024q0 -137 213 -137q208 0 208 137q0 59 -47 98q-57 45 -166 45q-209 0 -208 -143z" />
<glyph unicode="9" horiz-adv-x="1425" d="M80 940q0 242 174 379t479 137q279 0 441 -149q169 -156 169 -445q0 -344 -227 -583q-285 -301 -842 -302v326q500 0 680 277q-152 -84 -368 -84q-231 0 -365 108q-141 117 -141 336zM463 967q0 -84 64.5 -131.5t177.5 -47.5q260 1 260 181q0 174 -252 174 q-115 0 -182.5 -46t-67.5 -130z" />
<glyph unicode=":" horiz-adv-x="643" d="M92 207q0 98 65.5 161.5t164.5 63.5q98 0 163.5 -63.5t65.5 -161.5t-65.5 -164t-163.5 -66t-164 66t-66 164zM92 872q0 98 65.5 162t164.5 64q98 0 163.5 -64t65.5 -162t-65.5 -163.5t-163.5 -65.5t-164 65.5t-66 163.5z" />
<glyph unicode=";" horiz-adv-x="643" d="M92 872q0 100 64.5 163t165.5 63q98 0 163.5 -64t65.5 -162t-65.5 -163.5t-163.5 -65.5q-100 0 -165 65.5t-65 163.5zM96 -248l27 666h409l-192 -666h-244z" />
<glyph unicode="&#x3c;" horiz-adv-x="1054" d="M117 582v270l813 604v-479l-400 -256l400 -256v-488z" />
<glyph unicode="=" horiz-adv-x="1323" d="M164 238v372h995v-372h-995zM164 799v372h995v-372h-995z" />
<glyph unicode="&#x3e;" horiz-adv-x="1054" d="M125 -23v480l399 256l-399 256v487l813 -604v-270z" />
<glyph unicode="?" horiz-adv-x="1232" d="M43 1280q276 176 584 176q256 0 399 -100t143 -293q0 -121 -59 -196.5t-195 -141.5q-162 -80 -161 -213h-367q0 137 55 221q59 92 211 164q127 59 127 127q0 98 -159 98q-195 0 -396 -135zM354 190q0 90 60.5 149.5t152.5 59.5t152.5 -59.5t60.5 -149.5t-60.5 -151.5 t-152.5 -61.5t-152.5 61.5t-60.5 151.5z" />
<glyph unicode="@" horiz-adv-x="1712" d="M117 717q0 311 211 525t528 214q315 0 530 -215q209 -209 209 -504q0 -424 -301 -424q-145 0 -231 101q-147 -96 -318 -97q-117 0 -185 71t-68 200q0 123 79 190q74 66 203 66q121 0 195 -39v55q0 92 -131 92q-113 0 -232 -53l-67 164q154 72 338 72q315 0 315 -291v-256 q0 -135 113 -135q76 0 107.5 68.5t31.5 217.5q0 244 -168 408t-420 164q-264 0 -426 -170t-162 -422q0 -266 166 -431t422 -165q147 0 260 55l58 -133q-160 -68 -318 -68q-311 0 -522 209q-217 213 -217 531zM709 592q0 -96 114 -96q72 0 146 39v122q-63 29 -146 29 q-115 0 -114 -94z" />
<glyph unicode="A" horiz-adv-x="1560" d="M59 0l521 1434h401l520 -1434h-430l-78 252h-430l-78 -252h-426zM659 567h238l-27 95q-74 258 -92 358q-18 -100 -92 -358z" />
<glyph unicode="B" horiz-adv-x="1468" d="M145 0v1434h693q501 0 501 -372q0 -183 -172 -282q205 -88 205 -317q0 -223 -133 -342q-139 -121 -405 -121h-689zM526 313h314q143 1 143 142q0 137 -141 137h-316v-279zM526 895h299q125 0 125 113q0 112 -123 112h-2h-299v-225z" />
<glyph unicode="C" horiz-adv-x="1404" d="M86 717q0 340 184 543q177 196 468 196h3q250 0 392 -108q119 -96 198 -314l-360 -141q-43 113 -86 158q-55 59 -146 59q-119 0 -180 -111q-57 -102 -57 -282q0 -176 57 -279q60 -114 182 -114h2q88 0 146 51q47 39 110 151l336 -178q-188 -371 -596 -371 q-311 0 -485 211q-168 199 -168 529z" />
<glyph unicode="D" horiz-adv-x="1478" d="M145 0v1434h502q360 0 539 -152q198 -172 198 -557q0 -393 -196 -565q-182 -160 -578 -160h-465zM547 340h86q188 0 266 84t78 295q0 201 -75 288t-257 87h-98v-754z" />
<glyph unicode="E" horiz-adv-x="1366" d="M145 0v1434h1098v-334h-704v-191h424v-329h-424v-246h718v-334h-1112z" />
<glyph unicode="F" horiz-adv-x="1347" d="M145 0v1434h1135v-338h-739v-199h448v-336h-448v-561h-396z" />
<glyph unicode="G" horiz-adv-x="1476" d="M86 717q0 328 172 528q178 211 496 211q258 0 395 -100q123 -88 205 -301l-361 -142q-39 100 -86 146q-59 51 -155 51q-250 0 -250 -393q0 -403 276 -404q211 0 240 176h-260v297h631v-174q0 -307 -165 -471t-476 -164q-299 0 -478 195q-184 199 -184 545z" />
<glyph unicode="H" horiz-adv-x="1548" d="M145 0v1434h406v-523h446v523h406v-1434h-406v565h-446v-565h-406z" />
<glyph unicode="I" horiz-adv-x="716" d="M156 0v1434h405v-1434h-405z" />
<glyph unicode="J" horiz-adv-x="1413" d="M47 473l389 102q39 -131 88 -184q55 -63 154 -63q190 0 190 225v881h406v-850q0 -287 -151.5 -447t-450.5 -160q-272 0 -428 136q-137 119 -197 360z" />
<glyph unicode="K" horiz-adv-x="1503" d="M145 0v1434h406v-168q0 -197 -6 -355q82 131 276 377l115 146h483l-432 -506l481 -928h-471l-299 610l-147 -178v-432h-406z" />
<glyph unicode="L" horiz-adv-x="1259" d="M145 0v1434h402v-1088h635v-346h-1037z" />
<glyph unicode="M" horiz-adv-x="1728" d="M145 0v1434h365l176 -383q152 -328 180 -433q35 117 181 433l176 383h360v-1434h-373v342q0 233 9 381q-68 -168 -166 -375l-189 -397l-188 397q-98 207 -166 375q8 -147 8 -381v-342h-373z" />
<glyph unicode="N" horiz-adv-x="1548" d="M145 0v1434h351l315 -424q160 -213 223 -338q-12 76 -12 370v392h381v-1434h-324l-342 473q-143 199 -223 336q12 -76 12 -371v-438h-381z" />
<glyph unicode="O" horiz-adv-x="1499" d="M86 715q0 350 186 549q179 192 477 192h3q299 0 477 -190q184 -197 184 -547t-183 -546t-482 -196t-478 191q-184 197 -184 547zM498 719q0 -193 66.5 -294t187.5 -101q249 0 249 391q0 193 -66.5 294t-186.5 101q-250 0 -250 -391z" />
<glyph unicode="P" horiz-adv-x="1390" d="M145 0v1434h617q559 -1 559 -476q0 -493 -584 -493h-2h-198v-465h-392zM537 788h208q181 0 181 164q0 158 -174 158h-215v-322z" />
<glyph unicode="Q" horiz-adv-x="1499" d="M86 715q0 350 186 549q179 192 477 192h3q299 0 477 -190q184 -197 184 -547q0 -309 -184 -520l117 -152l-269 -176l-104 147q-111 -41 -225 -41q-299 0 -478 191q-184 197 -184 547zM498 719q0 -416 254 -416h18l-123 162l264 172l88 -127q19 84 19 205q0 188 -76 295 q-72 100 -194 100q-250 0 -250 -391z" />
<glyph unicode="R" horiz-adv-x="1466" d="M145 0v1434h641q559 0 560 -467q0 -303 -259 -420l287 -547h-444l-234 483h-159v-483h-392zM537 797h233h2q178 0 178 159q0 154 -174 154h-239v-313z" />
<glyph unicode="S" horiz-adv-x="1390" d="M90 152l193 311q84 -57 198 -98q127 -45 221 -46q104 0 145.5 20.5t41.5 72.5q0 41 -51.5 69.5t-192.5 61.5q-276 63 -385 153q-127 102 -127 308q0 205 153.5 328.5t411.5 123.5q336 0 572 -166l-193 -311q-199 135 -399 135q-147 0 -148 -88q0 -39 48.5 -63.5 t187.5 -57.5q281 -66 395 -164q125 -106 125 -301q0 -236 -166 -354q-154 -109 -426 -109q-340 0 -604 175z" />
<glyph unicode="T" horiz-adv-x="1372" d="M86 1087v347h1200v-347h-401v-1087h-398v1087h-401z" />
<glyph unicode="U" horiz-adv-x="1531" d="M137 612v822h406v-822q0 -284 223 -284h2q221 0 221 284v822h406v-822q0 -326 -181 -487q-164 -147 -452 -148q-287 0 -447 148q-178 162 -178 487z" />
<glyph unicode="V" horiz-adv-x="1507" d="M59 1434h447l104 -385q98 -360 146 -607q47 246 145 607l105 385h442l-494 -1434h-401z" />
<glyph unicode="W" horiz-adv-x="1896" d="M78 1434h409l39 -240q70 -430 86 -623q18 186 107 621l49 242h365l49 -242q88 -434 106 -621q16 193 86 623l39 240h406l-342 -1434h-367l-66 311q-82 391 -98 594q-16 -203 -98 -594l-66 -311h-362z" />
<glyph unicode="X" horiz-adv-x="1499" d="M59 0l469 725l-452 709h461l79 -140q106 -184 138 -262q35 78 139 262l80 140h450l-452 -701l469 -733h-461l-96 166q-84 143 -138 264q-41 -94 -139 -264l-96 -166h-451z" />
<glyph unicode="Y" horiz-adv-x="1527" d="M33 1434h459l110 -217q123 -242 164 -371q41 129 164 371l110 217h455l-530 -899v-535h-402v528z" />
<glyph unicode="Z" horiz-adv-x="1454" d="M135 0v285l420 512q82 100 283 319q-166 -6 -426 -6h-236v324h1131v-285l-420 -512q-82 -100 -283 -320q166 6 426 7h281v-324h-1176z" />
<glyph unicode="[" horiz-adv-x="948" d="M162 -225v1659h624v-301h-254v-1057h254v-301h-624z" />
<glyph unicode="\" horiz-adv-x="1044" d="M-33 1618h389l721 -1802h-389z" />
<glyph unicode="]" horiz-adv-x="948" d="M162 76h254v1057h-254v301h624v-1659h-624v301z" />
<glyph unicode="^" horiz-adv-x="1269" d="M51 741l420 693h328l420 -693h-385l-201 375l-201 -375h-381z" />
<glyph unicode="_" horiz-adv-x="1024" d="M0 -125h1024v-281h-1024v281z" />
<glyph unicode="`" horiz-adv-x="1024" d="M186 1546h437l147 -327h-262z" />
<glyph unicode="a" horiz-adv-x="1142" d="M78 348q0 170 108 262q102 88 279 88q123 0 223 -45v54q0 127 -151 127q-158 0 -299 -78l-97 243q203 98 463 99q432 0 432 -400v-698h-348v72q-123 -94 -262 -95q-160 0 -254 96.5t-94 274.5zM416 354q0 -116 112 -116h2q92 0 158 53v147q-68 31 -158 31 q-115 0 -114 -115z" />
<glyph unicode="b" horiz-adv-x="1171" d="M115 0v1346l368 147v-494q127 98 254 99q162 0 256 -129q103 -143 103 -428q0 -563 -373 -564q-115 0 -240 95v-72h-368zM483 332q66 -51 133 -51q61 0 88 52t27 195q0 154 -29 213q-27 53 -88 54q-66 0 -131 -52v-411z" />
<glyph unicode="c" horiz-adv-x="1064" d="M72 541q0 256 127 401q135 156 385 156q260 0 413 -246l-254 -193q-41 78 -71 105q-37 35 -94 35q-141 0 -142 -264q0 -258 152 -259q92 0 186 140l234 -183q-94 -139 -192.5 -197.5t-240.5 -58.5q-238 0 -370.5 146.5t-132.5 417.5z" />
<glyph unicode="d" horiz-adv-x="1171" d="M76 535q0 563 370 563q115 0 240 -94v342l371 147v-1493h-371v76q-123 -98 -254 -99q-162 0 -254 129q-102 143 -102 429zM438 547q0 -154 29 -210t90 -56q68 0 129 51v411q-61 51 -131 52q-61 0 -86 -50q-31 -55 -31 -198z" />
<glyph unicode="e" horiz-adv-x="1114" d="M72 537q0 270 139 419q133 141 352 142q227 0 350 -148q129 -153 129 -446q0 -53 -2 -72h-630q18 -172 182 -172q133 0 278 76l142 -236q-211 -123 -439 -123q-238 0 -372 156q-129 150 -129 404zM410 662h307q-14 86 -47 122q-39 41 -117 41q-125 0 -143 -163z" />
<glyph unicode="f" horiz-adv-x="784" d="M74 786v289h114v105q0 164 73 235.5t231 71.5q147 0 233 -45v-238q-49 23 -107 23q-74 0 -73 -68v-84h166v-289h-160v-786h-363v786h-114z" />
<glyph unicode="g" horiz-adv-x="1171" d="M76 535q0 563 370 563q115 0 240 -94v71h371v-913q0 -268 -135 -395q-125 -119 -426 -162l-136 213q199 33 262.5 77t63.5 154v37q-123 -98 -254 -98q-356 0 -356 547zM438 547q0 -154 29 -210t90 -56q68 0 129 51v411q-61 51 -131 52q-61 0 -86 -50q-31 -55 -31 -198z " />
<glyph unicode="h" d="M115 0v1346l368 147v-489q125 94 271 94q348 0 348 -441v-657h-371v610q0 176 -123 176q-125 0 -125 -172v-614h-368z" />
<glyph unicode="i" horiz-adv-x="618" d="M98 1335q0 78 60.5 128t150.5 50q94 0 154.5 -50t60.5 -128q0 -84 -59 -133t-156 -49q-92 0 -151.5 49t-59.5 133zM125 0v1075h369v-1075h-369z" />
<glyph unicode="j" horiz-adv-x="618" d="M-113 -141q137 18 187.5 66t50.5 157v993h369v-973q0 -246 -115 -360q-109 -106 -369 -137zM98 1335q0 78 60.5 128t150.5 50q94 0 154.5 -50t60.5 -128q0 -84 -59 -133t-156 -49q-92 0 -151.5 49t-59.5 133z" />
<glyph unicode="k" horiz-adv-x="1175" d="M115 0v1346l368 147v-438q0 -102 -6 -305q41 78 162 233l72 92h419l-278 -323l287 -752h-398l-161 449l-97 -123v-326h-368z" />
<glyph unicode="l" horiz-adv-x="618" d="M125 0v1346l369 147v-1493h-369z" />
<glyph unicode="m" horiz-adv-x="1802" d="M115 0v1075h368v-71q115 94 256 94q186 0 297 -121q147 121 314 121q346 0 346 -441v-657h-371v610q0 176 -117 176q-119 0 -118 -172v-614h-369v610q0 176 -119 176t-119 -172v-614h-368z" />
<glyph unicode="n" d="M115 0v1075h368v-71q125 94 271 94q348 0 348 -441v-657h-371v610q0 176 -123 176q-125 0 -125 -172v-614h-368z" />
<glyph unicode="o" horiz-adv-x="1165" d="M72 539q0 272 143 419q135 139 367 140q231 0 366 -140q146 -147 146 -419q0 -270 -146 -420q-135 -141 -366 -142q-229 0 -367 142q-143 150 -143 420zM436 539q0 -262 146 -263q145 1 145 263q0 260 -145 260t-146 -260z" />
<glyph unicode="p" horiz-adv-x="1171" d="M115 -395v1470h368v-76q127 98 254 99q162 0 256 -129q103 -143 103 -428q0 -563 -373 -564q-115 0 -240 95v-320zM483 332q66 -51 133 -51q61 0 88 52t27 195q0 154 -29 213q-27 53 -88 54q-66 0 -131 -52v-411z" />
<glyph unicode="q" horiz-adv-x="1171" d="M76 535q0 563 370 563q115 0 240 -94v71h371v-1323l-371 -147v471q-123 -98 -254 -99q-162 0 -254 129q-102 143 -102 429zM438 547q0 -154 29 -210t90 -56q68 0 129 51v411q-61 51 -131 52q-61 0 -86 -50q-31 -55 -31 -198z" />
<glyph unicode="r" horiz-adv-x="917" d="M115 0v1075h368v-78q104 100 230 101q100 0 174 -45l-86 -383q-82 90 -172 90q-145 0 -146 -174v-586h-368z" />
<glyph unicode="s" horiz-adv-x="1071" d="M88 66l86 278q213 -94 371 -94q98 0 98 49q0 45 -86 68q-260 70 -348 139q-98 78 -98 239q0 352 438 353q197 0 414 -78l-82 -285q-207 90 -342 90q-90 0 -90 -47q0 -27 19 -41t87 -32q242 -66 326 -134q100 -77 100 -231q0 -362 -444 -363q-221 0 -449 89z" />
<glyph unicode="t" horiz-adv-x="921" d="M59 786v289h164v273l359 145v-418h233v-289h-233v-389q0 -106 92 -106q63 0 147 57l-47 -313q-119 -57 -266 -58q-147 0 -216 81t-69 261v467h-164z" />
<glyph unicode="u" d="M106 418v657h371v-610q0 -176 123 -176t123 172v614h371v-1075h-371v72q-121 -94 -268 -95q-348 0 -349 441z" />
<glyph unicode="v" horiz-adv-x="1169" d="M31 1075h391l96 -395q53 -219 66 -322q16 115 67 322l99 395h389l-373 -1075h-363z" />
<glyph unicode="w" horiz-adv-x="1517" d="M35 1075h356l31 -160q2 -12 70 -438q27 158 83 443l35 155h303l33 -155q20 -94 84 -443q25 158 72 438l28 160h353l-303 -1075h-299l-45 219q-45 223 -80 438q-27 -158 -82 -442l-45 -215h-291z" />
<glyph unicode="x" horiz-adv-x="1175" d="M31 0l366 561l-325 514h401l12 -24q43 -82 111 -242q16 47 115 242l12 24h383l-330 -497l371 -578h-402l-53 98q-76 139 -112 226q-63 -137 -113 -226l-55 -98h-381z" />
<glyph unicode="y" d="M31 1075h391l102 -383q66 -244 82 -383q20 150 84 387l101 379h387l-521 -1454h-352l135 334z" />
<glyph unicode="z" horiz-adv-x="1157" d="M106 0v256l236 256q143 156 264 272q-270 -8 -276 -8h-199v299h909v-256l-235 -256q-143 -156 -264 -272q270 8 276 8h223v-299h-934z" />
<glyph unicode="{" horiz-adv-x="1044" d="M96 457v307h70q121 0 121 100v152q0 428 647 428v-238q-143 -16 -191.5 -70.5t-48.5 -174.5v-50q0 -166 -67 -229q-49 -47 -191 -72q141 -25 191 -71q68 -66 67 -232v-49q0 -121 47 -172q49 -57 193 -74v-237q-647 0 -647 428v153q0 100 -121 101h-70z" />
<glyph unicode="|" horiz-adv-x="663" d="M150 -379v2017h364v-2017h-364z" />
<glyph unicode="}" horiz-adv-x="1044" d="M111 12q143 16 194 74q45 51 45 172v49q0 166 68 232q49 45 190 69q-141 25 -190 72q-68 66 -68 231v50q0 121 -45 172q-51 57 -194 73v238q647 0 647 -428v-154q0 -100 121 -100h69v-307h-69q-121 0 -121 -101v-151q0 -428 -647 -428v237z" />
<glyph unicode="~" horiz-adv-x="1191" d="M92 625q82 199 154.5 278.5t171.5 79.5q57 0 96 -16q18 -6 88 -49l39 -23q82 -49 111 -49q41 0 77 57q4 4 48 90l223 -98q-82 -199 -155 -278.5t-171 -79.5q-57 0 -96 16q-18 6 -88 49l-39 23q-82 49 -111 49q-41 0 -78 -58q-4 -4 -47 -90z" />
<glyph unicode="&#xa0;" horiz-adv-x="716" d="M155 1853h437l147 -327h-262zM156 0v1434h405v-1434h-405z" />
<glyph unicode="&#xa1;" horiz-adv-x="1157" d="M106 0v256l236 256q143 156 264 272q-270 -8 -276 -8h-199v299h909v-256l-235 -256q-143 -156 -264 -272q270 8 276 8h223v-299h-934zM176 1546h246l170 -131l170 131h242l-269 -327h-290z" />
<glyph unicode="&#xa2;" horiz-adv-x="1064" d="M72 731q0 416 307 524v201h356v-188q152 -49 262 -226l-254 -192q-41 78 -71 104q-37 35 -94 35q-141 0 -142 -264q0 -258 152 -258q92 0 186 139l234 -182q-127 -188 -273 -234v-213h-356v222q-307 111 -307 532z" />
<glyph unicode="&#xa3;" horiz-adv-x="1421" d="M166 0v240q162 117 188 290h-188v277h156q-12 29 -43 80q-61 106 -62 203q0 174 141.5 270t413.5 96q317 0 557 -158l-168 -288q-182 123 -393 123q-162 0 -162 -109q0 -43 31 -94q41 -68 63 -123h314v-277h-295q-25 -129 -107 -227h684v-303h-1130z" />
<glyph unicode="&#xa4;" horiz-adv-x="1691" d="M31 725l325 281q45 39 82 14q35 -25 21 -88l-17 -74h271v215l-74 -16q-63 -14 -88 20q-25 37 14 82l281 326l280 -326q39 -45 15 -82q-25 -35 -88 -20l-74 16v-215h270l-16 74q-14 63 20 88q37 25 82 -14l326 -281l-326 -281q-45 -39 -82 -14q-35 25 -20 88l16 74h-270 v-232l74 17q63 14 88 -21q25 -37 -15 -82l-280 -325l-281 325q-39 45 -14 82q25 35 88 21l74 -17v232h-271l17 -74q14 -63 -21 -88q-37 -25 -82 14z" />
<glyph unicode="&#xa5;" horiz-adv-x="1486" d="M33 1434h459l102 -217q104 -219 151 -371q45 143 152 371l102 217h455l-520 -910v-35h328v-296h-328v-193h-381v193h-328v296h328v29z" />
<glyph unicode="&#xa6;" horiz-adv-x="716" d="M156 0v1434h405v-1434h-405zM217 1526l147 327h437l-322 -327h-262z" />
<glyph unicode="&#xa7;" horiz-adv-x="1478" d="M113 586q0 205 206 350q-31 68 -30 166q0 158 110 252q121 102 349 102q129 0 266 -37q131 -35 215 -88l-121 -278q-188 106 -379 106q-98 0 -98 -45q0 -31 24 -49q35 -27 144 -61q356 -117 458 -199q109 -88 109 -270q0 -205 -209 -351q33 -66 33 -166q0 -158 -111 -251 q-121 -102 -348 -103q-129 0 -263 36t-218 89l121 279q188 -106 379 -107q98 0 98 45q0 31 -25 49q-35 27 -143 62q-356 117 -459 198q-109 88 -108 271zM475 616q0 -53 51.5 -87.5t218.5 -88.5q117 -37 185 -69q74 55 74 133q0 53 -51.5 88t-219.5 88q-117 37 -184 70 q-74 -55 -74 -134z" />
<glyph unicode="&#xa8;" horiz-adv-x="1024" d="M86 1405q0 74 54.5 127t127.5 53q74 0 128.5 -53t54.5 -127q0 -70 -55.5 -123t-127.5 -53t-127 53t-55 123zM573 1405q0 74 55.5 127t129.5 53q72 0 126 -53t54 -127q0 -70 -54.5 -123t-125.5 -53q-74 0 -129.5 53t-55.5 123z" />
<glyph unicode="&#xa9;" horiz-adv-x="716" d="M155 1495l269 327h290l269 -327h-246l-170 131l-170 -131h-242zM156 0v1434h405v-1434h-405z" />
<glyph unicode="&#xaa;" horiz-adv-x="1024" d="M111 848q0 137 88 213q82 72 225 72q96 0 180 -37v43q0 102 -123 102q-125 0 -241 -63l-78 198q166 80 375 80q350 0 350 -323v-568h-283v60q-98 -76 -211 -76q-131 0 -206.5 78t-75.5 221zM385 854q0 -96 92 -96q76 0 127 43v121q-55 25 -127 24q-92 0 -92 -92z" />
<glyph unicode="&#xab;" horiz-adv-x="1421" d="M61 537l261 538h399l-268 -536l268 -539h-399zM678 537l260 538h399l-268 -536l268 -539h-399z" />
<glyph unicode="&#xac;" horiz-adv-x="716" d="M156 0v1434h405v-1434h-405zM156 1686q0 74 54.5 127t127.5 53q74 0 128.5 -53t54.5 -127q0 -70 -55.5 -123t-127.5 -53t-127 53t-55 123zM643 1686q0 74 55.5 127t129.5 53q72 0 126 -53t54 -127q0 -70 -54.5 -123t-125.5 -53q-74 0 -129.5 53t-55.5 123z" />
<glyph unicode="&#xad;" horiz-adv-x="991" d="M139 541v385h713v-385h-713z" />
<glyph unicode="&#xae;" horiz-adv-x="1519" d="M61 584v307h125v543h502q360 0 539 -152q198 -172 198 -557q0 -393 -196 -565q-182 -160 -578 -160h-465v584h-125zM567 340h107q188 0 266 84t78 295q0 201 -75 288t-257 87h-119v-203h181v-307h-181v-244z" />
<glyph unicode="&#xaf;" horiz-adv-x="1024" d="M178 1249v236h668v-236h-668z" />
<glyph unicode="&#xb0;" horiz-adv-x="1548" d="M145 0v1434h351l315 -424q160 -213 223 -338q-12 76 -12 370v392h381v-1434h-324l-342 473q-143 199 -223 336q12 -76 12 -371v-438h-381zM350 1520q0 139 72.5 230t195.5 91q96 0 183 -51q100 -59 124 -59q63 0 76 104h211q0 -139 -72.5 -230.5t-195.5 -91.5 q-96 0 -182 52q-100 59 -125 59q-61 0 -76 -104h-211z" />
<glyph unicode="&#xb1;" horiz-adv-x="1499" d="M86 715q0 350 186 549q180 193 480 192q299 0 477 -190q184 -197 184 -547t-183 -546t-482 -196t-478 191q-184 197 -184 547zM301 1853h437l147 -327h-262zM498 719q0 -193 66.5 -294t187.5 -101q249 0 249 391q0 193 -66.5 294t-186.5 101q-250 0 -250 -391z" />
<glyph unicode="&#xb2;" horiz-adv-x="1366" d="M145 0v1434h1098v-334h-704v-191h424v-329h-424v-246h718v-334h-1112zM520 1526l147 327h437l-322 -327h-262z" />
<glyph unicode="&#xb3;" horiz-adv-x="1366" d="M145 0v1434h1098v-334h-704v-191h424v-329h-424v-246h718v-334h-1112zM248 1526l269 327h290l269 -327h-246l-170 131l-170 -131h-242z" />
<glyph unicode="&#xb4;" horiz-adv-x="1024" d="M254 1219l147 327h437l-322 -327h-262z" />
<glyph unicode="&#xb6;" horiz-adv-x="1482" d="M76 985q0 207 139 332q129 117 326 117h780v-1813h-285v1573h-121v-1573h-284v914h-90q-197 0 -328 116q-137 125 -137 334z" />
<glyph unicode="&#xb7;" horiz-adv-x="643" d="M86 752q0 100 66.5 165.5t169.5 65.5q102 0 168.5 -65.5t66.5 -165.5t-66.5 -168t-168.5 -68q-100 0 -168 67.5t-68 168.5z" />
<glyph unicode="&#xb8;" horiz-adv-x="1024" d="M229 -322l39 95q106 -49 207 -49q94 0 94 55q0 47 -45 47q-33 0 -75 -29l-78 53l41 150h125l-25 -86q37 18 86 18q160 1 160 -149q0 -178 -228 -178q-150 0 -301 73z" />
<glyph unicode="&#xb9;" horiz-adv-x="1366" d="M145 0v1434h1098v-334h-704v-191h424v-329h-424v-246h718v-334h-1112zM274 1853h437l147 -327h-262z" />
<glyph unicode="&#xba;" horiz-adv-x="1028" d="M100 1004q0 219 117 339q111 113 297 113t297 -113q117 -120 117 -339t-114 -337t-300 -118t-297 115q-117 121 -117 340zM395 1004q0 -213 119 -213t119 213q0 211 -119 210q-119 0 -119 -210z" />
<glyph unicode="&#xbb;" horiz-adv-x="1421" d="M84 0l268 539l-268 536h399l260 -538l-260 -537h-399zM700 0l269 539l-269 536h400l260 -538l-260 -537h-400z" />
<glyph unicode="&#xbc;" horiz-adv-x="1560" d="M59 0l521 1434h401l520 -1434h-430l-78 252h-430l-78 -252h-426zM356 1712q0 74 54.5 127t127.5 53q74 0 128.5 -53t54.5 -127q0 -70 -55.5 -123t-127.5 -53t-127 53t-55 123zM659 567h238l-27 95q-74 258 -92 358q-18 -100 -92 -358zM843 1712q0 74 55.5 127t129.5 53 q72 0 126 -53t54 -127q0 -70 -54.5 -123t-125.5 -53q-74 0 -129.5 53t-55.5 123z" />
<glyph unicode="&#xbd;" horiz-adv-x="1560" d="M59 0l488 1346q-57 78 -58 172q0 121 84 202.5t207 81.5t207 -82t84 -202q0 -98 -57 -172l487 -1346h-430l-78 252h-430l-78 -252h-426zM659 567h238l-27 95q-74 258 -92 358q-18 -100 -92 -358zM668 1518q0 -121 112 -121q113 0 113 121q0 123 -113 122 q-113 0 -112 -122z" />
<glyph unicode="&#xbe;" horiz-adv-x="1404" d="M86 717q0 340 184 543q178 197 471 196q250 0 392 -108q119 -96 198 -314l-360 -141q-43 113 -86 158q-55 59 -146 59q-119 0 -180 -111q-57 -102 -57 -282q0 -176 57 -279q61 -115 184 -114q88 0 146 51q47 39 110 151l336 -178q-184 -358 -567 -371l-18 -63 q37 18 86 18q160 0 159 -149q0 -178 -227 -178q-150 0 -301 73l39 95q106 -49 207 -49q94 0 94 55q0 47 -45 47q-33 0 -76 -29l-78 53l37 134q-266 31 -416 235q-143 197 -143 498z" />
<glyph unicode="&#xbf;" horiz-adv-x="1232" d="M63 371q0 121 59.5 196.5t194.5 141.5q162 80 162 213h367q0 -137 -55 -222q-59 -92 -211 -163q-127 -59 -127 -127q0 -98 159 -99q195 0 396 135l182 -292q-276 -176 -584 -177q-256 0 -399.5 100.5t-143.5 293.5zM453 1243q0 90 60 151.5t153 61.5q92 0 152.5 -61.5 t60.5 -151.5t-60.5 -149.5t-152.5 -59.5t-152.5 59.5t-60.5 149.5z" />
<glyph unicode="&#xc0;" horiz-adv-x="1499" d="M86 715q0 350 186 549q180 193 480 192q299 0 477 -190q184 -197 184 -547t-183 -546t-482 -196t-478 191q-184 197 -184 547zM336 1516l269 327h290l269 -327h-246l-170 131l-170 -131h-242zM498 719q0 -193 66.5 -294t187.5 -101q249 0 249 391q0 193 -66.5 294 t-186.5 101q-250 0 -250 -391z" />
<glyph unicode="&#xc1;" horiz-adv-x="1499" d="M86 715q0 350 186 549q180 193 480 192q299 0 477 -190q184 -197 184 -547t-183 -546t-482 -196t-478 191q-184 197 -184 547zM307 1526q0 139 72.5 230t195.5 91q96 0 183 -51q100 -59 124 -59q63 0 76 104h211q0 -139 -72.5 -230.5t-195.5 -91.5q-96 0 -182 52 q-100 59 -125 59q-61 0 -76 -104h-211zM498 719q0 -193 66.5 -294t187.5 -101q249 0 249 391q0 193 -66.5 294t-186.5 101q-250 0 -250 -391z" />
<glyph unicode="&#xc2;" horiz-adv-x="1499" d="M86 715q0 350 186 549q180 193 480 192q299 0 477 -190q184 -197 184 -547t-183 -546t-482 -196t-478 191q-184 197 -184 547zM324 1712q0 74 54.5 127t127.5 53q74 0 128.5 -53t54.5 -127q0 -70 -55.5 -123t-127.5 -53t-127 53t-55 123zM498 719q0 -193 66.5 -294 t187.5 -101q249 0 249 391q0 193 -66.5 294t-186.5 101q-250 0 -250 -391zM811 1712q0 74 55.5 127t129.5 53q72 0 126 -53t54 -127q0 -70 -54.5 -123t-125.5 -53q-74 0 -129.5 53t-55.5 123z" />
<glyph unicode="&#xc3;" horiz-adv-x="1691" d="M31 725l325 281q45 39 82 14q35 -25 21 -88l-17 -74h271v215l-74 -16q-63 -14 -88 20q-25 37 14 82l281 326l280 -326q39 -45 15 -82q-25 -35 -88 -20l-74 16v-215h270l-16 74q-14 63 20 88q37 25 82 -14l326 -281l-326 -281q-45 -39 -82 -14q-35 25 -20 88l16 74h-270 v-232l74 17q63 14 88 -21q25 -37 -15 -82l-280 -325l-281 325q-39 45 -14 82q25 35 88 21l74 -17v232h-271l17 -74q14 -63 -21 -88q-37 -25 -82 14z" />
<glyph unicode="&#xc4;" horiz-adv-x="1531" d="M137 612v822h406v-822q0 -285 225 -284q221 0 221 284v822h406v-822q0 -326 -181 -487q-164 -147 -452 -148q-287 0 -447 148q-178 162 -178 487zM333 1822h437l147 -327h-262z" />
<glyph unicode="&#xc5;" horiz-adv-x="1531" d="M137 612v822h406v-822q0 -285 225 -284q221 0 221 284v822h406v-822q0 -326 -181 -487q-164 -147 -452 -148q-287 0 -447 148q-178 162 -178 487zM616 1495l147 327h437l-322 -327h-262z" />
<glyph unicode="&#xc6;" horiz-adv-x="2193" d="M29 0l962 1434h1080v-334h-664v-191h383v-329h-383v-246h678v-334h-1036v156h-496l-96 -156h-428zM739 455h310v235q0 45 2 169t2 149q-49 -109 -174 -320z" />
<glyph unicode="&#xc7;" horiz-adv-x="1531" d="M137 612v822h406v-822q0 -285 225 -284q221 0 221 284v822h406v-822q0 -326 -181 -487q-164 -147 -452 -148q-287 0 -447 148q-178 162 -178 487zM352 1526l269 327h290l269 -327h-246l-170 131l-170 -131h-242z" />
<glyph unicode="&#xc8;" horiz-adv-x="1531" d="M137 612v822h406v-822q0 -285 225 -284q221 0 221 284v822h406v-822q0 -326 -181 -487q-164 -147 -452 -148q-287 0 -447 148q-178 162 -178 487zM340 1712q0 74 54.5 127t127.5 53q74 0 128.5 -53t54.5 -127q0 -70 -55.5 -123t-127.5 -53t-127 53t-55 123zM827 1712 q0 74 55.5 127t129.5 53q72 0 126 -53t54 -127q0 -70 -54.5 -123t-125.5 -53q-74 0 -129.5 53t-55.5 123z" />
<glyph unicode="&#xc9;" horiz-adv-x="1527" d="M33 1434h459l110 -217q123 -242 164 -371q41 129 164 371l110 217h455l-530 -899v-535h-402v528zM627 1522l147 327h437l-322 -327h-262z" />
<glyph unicode="&#xca;" horiz-adv-x="1404" d="M86 717q0 340 184 543q178 197 471 196q250 0 392 -108q119 -96 198 -314l-360 -141q-43 113 -86 158q-55 59 -146 59q-119 0 -180 -111q-57 -102 -57 -282q0 -176 57 -279q61 -115 184 -114q88 0 146 51q47 39 110 151l336 -178q-188 -371 -596 -371q-311 0 -485 211 q-168 199 -168 529zM329 1857h246l170 -131l170 131h242l-269 -327h-290z" />
<glyph unicode="&#xcb;" horiz-adv-x="1142" d="M78 348q0 170 108 262q102 88 279 88q123 0 223 -45v54q0 127 -151 127q-158 0 -299 -78l-97 243q203 98 463 99q432 0 432 -400v-698h-348v72q-123 -94 -262 -95q-160 0 -254 96.5t-94 274.5zM188 1546h437l147 -327h-262zM416 354q0 -117 114 -116q92 0 158 53v147 q-68 31 -158 31q-115 0 -114 -115z" />
<glyph unicode="&#xcc;" horiz-adv-x="1142" d="M78 348q0 170 108 262q102 88 279 88q123 0 223 -45v54q0 127 -151 127q-158 0 -299 -78l-97 243q203 98 463 99q432 0 432 -400v-698h-348v72q-123 -94 -262 -95q-160 0 -254 96.5t-94 274.5zM389 1219l147 327h437l-322 -327h-262zM416 354q0 -117 114 -116 q92 0 158 53v147q-68 31 -158 31q-115 0 -114 -115z" />
<glyph unicode="&#xcd;" horiz-adv-x="1142" d="M78 348q0 170 108 262q102 88 279 88q123 0 223 -45v54q0 127 -151 127q-158 0 -299 -78l-97 243q203 98 463 99q432 0 432 -400v-698h-348v72q-123 -94 -262 -95q-160 0 -254 96.5t-94 274.5zM159 1209l269 327h290l269 -327h-246l-170 131l-170 -131h-242zM416 354 q0 -117 114 -116q92 0 158 53v147q-68 31 -158 31q-115 0 -114 -115z" />
<glyph unicode="&#xce;" horiz-adv-x="1142" d="M78 348q0 170 108 262q102 88 279 88q123 0 223 -45v54q0 127 -151 127q-158 0 -299 -78l-97 243q203 98 463 99q432 0 432 -400v-698h-348v72q-123 -94 -262 -95q-160 0 -254 96.5t-94 274.5zM150 1219q0 139 72.5 230t195.5 91q96 0 183 -51q100 -59 124 -59 q63 0 76 104h211q0 -139 -72.5 -230.5t-195.5 -91.5q-96 0 -182 52q-100 59 -125 59q-61 0 -76 -104h-211zM416 354q0 -117 114 -116q92 0 158 53v147q-68 31 -158 31q-115 0 -114 -115z" />
<glyph unicode="&#xcf;" horiz-adv-x="1142" d="M78 348q0 170 108 262q102 88 279 88q123 0 223 -45v54q0 127 -151 127q-158 0 -299 -78l-97 243q203 98 463 99q432 0 432 -400v-698h-348v72q-123 -94 -262 -95q-160 0 -254 96.5t-94 274.5zM143 1395q0 74 54.5 127t127.5 53q74 0 128.5 -53t54.5 -127 q0 -70 -55.5 -123t-127.5 -53t-127 53t-55 123zM416 354q0 -117 114 -116q92 0 158 53v147q-68 31 -158 31q-115 0 -114 -115zM630 1395q0 74 55.5 127t129.5 53q72 0 126 -53t54 -127q0 -70 -54.5 -123t-125.5 -53q-74 0 -129.5 53t-55.5 123z" />
<glyph unicode="&#xd0;" horiz-adv-x="1142" d="M78 348q0 170 108 262q102 88 279 88q123 0 223 -45v54q0 127 -151 127q-158 0 -299 -78l-97 243q203 98 463 99q432 0 432 -400v-698h-348v72q-123 -94 -262 -95q-160 0 -254 96.5t-94 274.5zM284 1501q0 121 84 203t207 82t207 -82t84 -203t-84 -201.5t-207 -80.5 t-207 80.5t-84 201.5zM416 354q0 -117 114 -116q92 0 158 53v147q-68 31 -158 31q-115 0 -114 -115zM462 1501q0 -121 113 -121t113 121q0 123 -113 123t-113 -123z" />
<glyph unicode="&#xd1;" horiz-adv-x="1064" d="M72 541q0 256 127 401q135 156 385 156q260 0 413 -246l-254 -193q-41 78 -71 105q-37 35 -94 35q-141 0 -142 -264q0 -258 152 -259q92 0 186 140l234 -183q-90 -135 -185.5 -194t-232.5 -62l-19 -63q37 18 86 18q160 0 160 -149q0 -178 -227 -178q-150 0 -301 73l39 95 q106 -49 207 -49q94 0 94 55q0 47 -45 47q-33 0 -76 -29l-78 53l37 136q-188 33 -291.5 175t-103.5 380z" />
<glyph unicode="&#xd2;" horiz-adv-x="1114" d="M72 537q0 270 139 419q133 141 352 142q227 0 350 -148q129 -153 129 -446q0 -53 -2 -72h-630q18 -172 182 -172q133 0 278 76l142 -236q-211 -123 -439 -123q-238 0 -372 156q-129 150 -129 404zM137 1546h437l147 -327h-262zM410 662h307q-14 86 -47 122 q-39 41 -117 41q-125 0 -143 -163z" />
<glyph unicode="&#xd3;" horiz-adv-x="1114" d="M72 537q0 270 139 419q133 141 352 142q227 0 350 -148q129 -153 129 -446q0 -53 -2 -72h-630q18 -172 182 -172q133 0 278 76l142 -236q-211 -123 -439 -123q-238 0 -372 156q-129 150 -129 404zM410 662h307q-14 86 -47 122q-39 41 -117 41q-125 0 -143 -163zM410 1219 l147 327h437l-322 -327h-262z" />
<glyph unicode="&#xd4;" horiz-adv-x="1114" d="M72 537q0 270 139 419q133 141 352 142q227 0 350 -148q129 -153 129 -446q0 -53 -2 -72h-630q18 -172 182 -172q133 0 278 76l142 -236q-211 -123 -439 -123q-238 0 -372 156q-129 150 -129 404zM151 1199l269 327h290l269 -327h-246l-170 131l-170 -131h-242zM410 662 h307q-14 86 -47 122q-39 41 -117 41q-125 0 -143 -163z" />
<glyph unicode="&#xd5;" horiz-adv-x="1114" d="M72 537q0 270 139 419q133 141 352 142q227 0 350 -148q129 -153 129 -446q0 -53 -2 -72h-630q18 -172 182 -172q133 0 278 76l142 -236q-211 -123 -439 -123q-238 0 -372 156q-129 150 -129 404zM141 1395q0 74 54.5 127t127.5 53q74 0 128.5 -53t54.5 -127 q0 -70 -55.5 -123t-127.5 -53t-127 53t-55 123zM410 662h307q-14 86 -47 122q-39 41 -117 41q-125 0 -143 -163zM628 1395q0 74 55.5 127t129.5 53q72 0 126 -53t54 -127q0 -70 -54.5 -123t-125.5 -53q-74 0 -129.5 53t-55.5 123z" />
<glyph unicode="&#xd6;" horiz-adv-x="618" d="M125 0v1075h369v-1075h-369zM125 1546h437l147 -327h-262z" />
<glyph unicode="&#xd7;" horiz-adv-x="618" d="M125 0v1075h369v-1075h-369zM150 1219l147 327h437l-322 -327h-262z" />
<glyph unicode="&#xd8;" horiz-adv-x="1499" d="M49 -102l184 313q-147 188 -147 504q0 350 186 549q180 193 480 192q111 0 202 -26l64 106h426l-182 -307q152 -193 151 -510q0 -350 -183 -546t-482 -196q-106 0 -209 29l-64 -108h-426zM498 719q0 -193 66.5 -294t187.5 -101q249 0 249 391q0 193 -66.5 294t-186.5 101 q-250 0 -250 -391z" />
<glyph unicode="&#xd9;" horiz-adv-x="618" d="M125 0v1075h369v-1075h-369zM125 1188l269 327h290l269 -327h-246l-170 131l-170 -131h-242z" />
<glyph unicode="&#xda;" horiz-adv-x="618" d="M125 0v1075h369v-1075h-369zM125 1385q0 74 54.5 127t127.5 53q74 0 128.5 -53t54.5 -127q0 -70 -55.5 -123t-127.5 -53t-127 53t-55 123zM612 1385q0 74 55.5 127t129.5 53q72 0 126 -53t54 -127q0 -70 -54.5 -123t-125.5 -53q-74 0 -129.5 53t-55.5 123z" />
<glyph unicode="&#xdb;" horiz-adv-x="1171" d="M76 535q0 563 370 563q115 0 240 -94v178h-133v219h133v94l371 -2v-92h114v-219h-114v-1182h-371v76q-123 -98 -254 -99q-162 0 -254 129q-102 143 -102 429zM438 547q0 -154 29 -210t90 -56q68 0 129 51v411q-61 51 -131 52q-61 0 -86 -50q-31 -55 -31 -198z" />
<glyph unicode="&#xdc;" d="M115 0v1075h368v-71q125 94 271 94q348 0 348 -441v-657h-371v610q0 176 -123 176q-125 0 -125 -172v-614h-368zM193 1219q0 139 72.5 230t195.5 91q96 0 183 -51q100 -59 124 -59q63 0 76 104h211q0 -139 -72.5 -230.5t-195.5 -91.5q-96 0 -182 52q-100 59 -125 59 q-61 0 -76 -104h-211z" />
<glyph unicode="&#xdd;" horiz-adv-x="1165" d="M72 539q0 272 143 419q135 139 367 140q231 0 366 -140q146 -147 146 -419q0 -270 -146 -420q-135 -141 -366 -142q-229 0 -367 142q-143 150 -143 420zM139 1546h437l147 -327h-262zM436 539q0 -262 146 -263q145 1 145 263q0 260 -145 260t-146 -260z" />
<glyph unicode="&#xde;" horiz-adv-x="1165" d="M72 539q0 272 143 419q135 139 367 140q231 0 366 -140q146 -147 146 -419q0 -270 -146 -420q-135 -141 -366 -142q-229 0 -367 142q-143 150 -143 420zM432 1219l147 327h437l-322 -327h-262zM436 539q0 -262 146 -263q145 1 145 263q0 260 -145 260t-146 -260z" />
<glyph unicode="&#xdf;" horiz-adv-x="1230" d="M115 -395v1401q0 242 131 366q121 115 344 115q205 0 325 -90q133 -100 134 -289q0 -188 -172 -285q282 -63 282 -344q0 -479 -534 -479h-31v289h31q172 0 172 184t-191 184h-12v279h12q96 0 96 111q0 141 -112 141q-106 0 -107 -172v-1264z" />
<glyph unicode="&#xe0;" horiz-adv-x="1165" d="M72 539q0 272 143 419q135 139 367 140q231 0 366 -140q146 -147 146 -419q0 -270 -146 -420q-135 -141 -366 -142q-229 0 -367 142q-143 150 -143 420zM168 1199l269 327h290l269 -327h-246l-170 131l-170 -131h-242zM436 539q0 -262 146 -263q145 1 145 263 q0 260 -145 260t-146 -260z" />
<glyph unicode="&#xe1;" horiz-adv-x="1165" d="M72 539q0 272 143 419q135 139 367 140q231 0 366 -140q146 -147 146 -419q0 -270 -146 -420q-135 -141 -366 -142q-229 0 -367 142q-143 150 -143 420zM152 1219q0 139 72.5 230t195.5 91q96 0 183 -51q100 -59 124 -59q63 0 76 104h211q0 -139 -72.5 -230.5 t-195.5 -91.5q-96 0 -182 52q-100 59 -125 59q-61 0 -76 -104h-211zM436 539q0 -262 146 -263q145 1 145 263q0 260 -145 260t-146 -260z" />
<glyph unicode="&#xe2;" horiz-adv-x="1165" d="M72 539q0 272 143 419q135 139 367 140q231 0 366 -140q146 -147 146 -419q0 -270 -146 -420q-135 -141 -366 -142q-229 0 -367 142q-143 150 -143 420zM156 1385q0 74 54.5 127t127.5 53q74 0 128.5 -53t54.5 -127q0 -70 -55.5 -123t-127.5 -53t-127 53t-55 123z M436 539q0 -262 146 -263q145 1 145 263q0 260 -145 260t-146 -260zM643 1385q0 74 55.5 127t129.5 53q72 0 126 -53t54 -127q0 -70 -54.5 -123t-125.5 -53q-74 0 -129.5 53t-55.5 123z" />
<glyph unicode="&#xe3;" horiz-adv-x="1691" d="M31 725l325 281q45 39 82 14q35 -25 21 -88l-17 -74h271v215l-74 -16q-63 -14 -88 20q-25 37 14 82l281 326l280 -326q39 -45 15 -82q-25 -35 -88 -20l-74 16v-215h270l-16 74q-14 63 20 88q37 25 82 -14l326 -281l-326 -281q-45 -39 -82 -14q-35 25 -20 88l16 74h-270 v-232l74 17q63 14 88 -21q25 -37 -15 -82l-280 -325l-281 325q-39 45 -14 82q25 35 88 21l74 -17v232h-271l17 -74q14 -63 -21 -88q-37 -25 -82 14z" />
<glyph unicode="&#xe4;" d="M106 418v657h371v-610q0 -176 123 -176t123 172v614h371v-1075h-371v72q-121 -94 -268 -95q-348 0 -349 441zM174 1546h437l147 -327h-262z" />
<glyph unicode="&#xe5;" d="M106 418v657h371v-610q0 -176 123 -176t123 172v614h371v-1075h-371v72q-121 -94 -268 -95q-348 0 -349 441zM447 1219l147 327h437l-322 -327h-262z" />
<glyph unicode="&#xe6;" horiz-adv-x="1734" d="M78 348q0 170 108 262q102 88 279 88q123 0 223 -45v54q0 127 -151 127q-158 0 -299 -78l-97 243q203 98 453 99q215 0 299 -131q106 131 301 131q219 0 340 -148q129 -153 129 -446q0 -53 -2 -72h-631q18 -172 182 -172q133 0 279 76l141 -236q-211 -123 -438 -123 q-225 0 -332 154q-150 -154 -395 -154q-389 0 -389 371zM416 354q0 -117 114 -116q92 0 158 53v147q-68 31 -158 31q-115 0 -114 -115zM1030 662h307q-14 86 -47 122q-39 41 -116 41q-125 0 -144 -163z" />
<glyph unicode="&#xe7;" d="M106 418v657h371v-610q0 -176 123 -176t123 172v614h371v-1075h-371v72q-121 -94 -268 -95q-348 0 -349 441zM192 1219l269 327h290l269 -327h-246l-170 131l-170 -131h-242z" />
<glyph unicode="&#xe8;" d="M106 418v657h371v-610q0 -176 123 -176t123 172v614h371v-1075h-371v72q-121 -94 -268 -95q-348 0 -349 441zM180 1405q0 74 54.5 127t127.5 53q74 0 128.5 -53t54.5 -127q0 -70 -55.5 -123t-127.5 -53t-127 53t-55 123zM667 1405q0 74 55.5 127t129.5 53q72 0 126 -53 t54 -127q0 -70 -54.5 -123t-125.5 -53q-74 0 -129.5 53t-55.5 123z" />
<glyph unicode="&#xe9;" d="M31 1075h391l102 -383q66 -244 82 -383q20 150 84 387l101 379h387l-521 -1454h-352l135 334zM479 1199l147 327h437l-322 -327h-262z" />
<glyph unicode="&#xea;" horiz-adv-x="1064" d="M72 541q0 256 127 401q135 156 385 156q260 0 413 -246l-254 -193q-41 78 -71 105q-37 35 -94 35q-141 0 -142 -264q0 -258 152 -259q92 0 186 140l234 -183q-94 -139 -192.5 -197.5t-240.5 -58.5q-238 0 -370.5 146.5t-132.5 417.5zM137 1546h246l170 -131l170 131h242 l-269 -327h-290z" />
<glyph unicode="&#xeb;" d="M31 1075h391l102 -383q66 -244 82 -383q20 150 84 387l101 379h387l-521 -1454h-352l135 334zM178 1385q0 74 54.5 127t127.5 53q74 0 128.5 -53t54.5 -127q0 -70 -55.5 -123t-127.5 -53t-127 53t-55 123zM665 1385q0 74 55.5 127t129.5 53q72 0 126 -53t54 -127 q0 -70 -54.5 -123t-125.5 -53q-74 0 -129.5 53t-55.5 123z" />
<glyph unicode="&#xec;" horiz-adv-x="1390" d="M90 152l193 311q84 -57 198 -98q127 -45 221 -46q104 0 145.5 20.5t41.5 72.5q0 41 -51.5 69.5t-192.5 61.5q-276 63 -385 153q-127 102 -127 308q0 205 153.5 328.5t411.5 123.5q336 0 572 -166l-193 -311q-199 135 -399 135q-147 0 -148 -88q0 -39 48.5 -63.5 t187.5 -57.5q281 -66 395 -164q125 -106 125 -301q0 -236 -166 -354q-154 -109 -426 -109q-340 0 -604 175zM288 1857h246l170 -131l170 131h242l-269 -327h-290z" />
<glyph unicode="&#xed;" horiz-adv-x="1071" d="M88 66l86 278q213 -94 371 -94q98 0 98 49q0 45 -86 68q-260 70 -348 139q-98 78 -98 239q0 352 438 353q197 0 414 -78l-82 -285q-207 90 -342 90q-90 0 -90 -47q0 -27 19 -41t87 -32q242 -66 326 -134q100 -77 100 -231q0 -362 -444 -363q-221 0 -449 89zM116 1546h246 l170 -131l170 131h242l-269 -327h-290z" />
<glyph unicode="&#xee;" horiz-adv-x="1718" d="M49 1241v193h672v-193h-223v-610h-224v610h-225zM848 631v803h203l98 -213q88 -190 102 -244q16 61 101 244l98 213h203v-803h-209v192q0 152 4 213q-57 -139 -92 -211l-107 -221l-104 221q-55 119 -94 211q4 -61 4 -213v-192h-207z" />
<glyph unicode="&#xef;" horiz-adv-x="1527" d="M33 1434h459l110 -217q123 -242 164 -371q41 129 164 371l110 217h455l-530 -899v-535h-402v528zM338 1702q0 74 54.5 127t127.5 53q74 0 128.5 -53t54.5 -127q0 -70 -55.5 -123t-127.5 -53t-127 53t-55 123zM825 1702q0 74 55.5 127t129.5 53q72 0 126 -53t54 -127 q0 -70 -54.5 -123t-125.5 -53q-74 0 -129.5 53t-55.5 123z" />
<glyph unicode="&#xf0;" horiz-adv-x="1691" d="M31 725l325 281q45 39 82 14q35 -25 21 -88l-17 -74h271v215l-74 -16q-63 -14 -88 20q-25 37 14 82l281 326l280 -326q39 -45 15 -82q-25 -35 -88 -20l-74 16v-215h270l-16 74q-14 63 20 88q37 25 82 -14l326 -281l-326 -281q-45 -39 -82 -14q-35 25 -20 88l16 74h-270 v-232l74 17q63 14 88 -21q25 -37 -15 -82l-280 -325l-281 325q-39 45 -14 82q25 35 88 21l74 -17v232h-271l17 -74q14 -63 -21 -88q-37 -25 -82 14z" />
<glyph unicode="&#xf2;" horiz-adv-x="921" d="M90 403q0 18 10 33q29 39 103 25l94 -19v992h328v-992l94 19q73 14 102 -25q10 -14 10 -33q0 -31 -26 -61l-344 -393l-344 393q-27 31 -27 61z" />
<glyph unicode="&#xf3;" horiz-adv-x="1445" d="M78 696h389l51 -108q90 -190 113 -295q16 102 80 303l266 838h395l-538 -1434h-379z" />
<glyph unicode="&#xf4;" horiz-adv-x="921" d="M90 1030q0 31 27 62l344 393l344 -393q27 -31 26 -62q0 -19 -10 -33q-29 -39 -102 -24l-94 18v-991h-328v991l-94 -18q-74 -14 -103 24q-10 14 -10 33z" />
<glyph unicode="&#xf5;" horiz-adv-x="1171" d="M76 535q0 563 370 563q115 0 240 -94v71h371v-1075h-371v76q-123 -98 -254 -99q-162 0 -254 129q-102 143 -102 429zM438 547q0 -154 29 -210t90 -56q68 0 129 51v411q-61 51 -131 52q-61 0 -86 -50q-31 -55 -31 -198z" />
<glyph unicode="&#xf6;" horiz-adv-x="1071" d="M88 66l86 278q213 -94 371 -94q98 0 98 49q0 45 -86 68q-260 70 -348 139q-98 78 -98 239q0 352 438 353q197 0 414 -78l-82 -285q-207 90 -342 90q-90 0 -90 -47q0 -27 19 -41t87 -32q242 -66 326 -134q100 -77 100 -231q0 -362 -444 -363q-221 0 -449 89zM116 1546h246 l170 -131l170 131h242l-269 -327h-290z" />
<glyph unicode="&#xf7;" horiz-adv-x="1691" d="M31 725l325 281q45 39 82 14q35 -25 21 -88l-17 -74h271v215l-74 -16q-63 -14 -88 20q-25 37 14 82l281 326l280 -326q39 -45 15 -82q-25 -35 -88 -20l-74 16v-215h270l-16 74q-14 63 20 88q37 25 82 -14l326 -281l-326 -281q-45 -39 -82 -14q-35 25 -20 88l16 74h-270 v-232l74 17q63 14 88 -21q25 -37 -15 -82l-280 -325l-281 325q-39 45 -14 82q25 35 88 21l74 -17v232h-271l17 -74q14 -63 -21 -88q-37 -25 -82 14z" />
<glyph unicode="&#xf8;" horiz-adv-x="1165" d="M33 -102l151 256q-113 147 -112 385q0 272 143 419q135 139 367 140q82 0 151 -19l60 99h333l-149 -252q117 -145 117 -387q0 -270 -146 -420q-135 -141 -366 -142q-88 0 -156 21l-59 -100h-334zM436 539q0 -262 146 -263q145 1 145 263q0 260 -145 260t-146 -260z" />
<glyph unicode="&#xf9;" horiz-adv-x="1691" d="M31 725l325 281q45 39 82 14q35 -25 21 -88l-17 -74h271v215l-74 -16q-63 -14 -88 20q-25 37 14 82l281 326l280 -326q39 -45 15 -82q-25 -35 -88 -20l-74 16v-215h270l-16 74q-14 63 20 88q37 25 82 -14l326 -281l-326 -281q-45 -39 -82 -14q-35 25 -20 88l16 74h-270 v-232l74 17q63 14 88 -21q25 -37 -15 -82l-280 -325l-281 325q-39 45 -14 82q25 35 88 21l74 -17v232h-271l17 -74q14 -63 -21 -88q-37 -25 -82 14z" />
<glyph unicode="&#xfa;" horiz-adv-x="921" d="M90 403q0 18 10 33q29 39 103 25l94 -19v549l-94 -18q-74 -14 -103 24q-10 14 -10 33q0 31 27 62l344 393l344 -393q27 -31 26 -62q0 -18 -10 -33q-29 -39 -102 -24l-94 18v-549l94 19q73 14 102 -25q10 -14 10 -33q0 -31 -26 -61l-344 -393l-344 393q-27 31 -27 61z" />
<glyph unicode="&#xfb;" horiz-adv-x="1691" d="M31 725l325 281q45 39 82 14q35 -25 21 -88l-17 -74h271v215l-74 -16q-63 -14 -88 20q-25 37 14 82l281 326l280 -326q39 -45 15 -82q-25 -35 -88 -20l-74 16v-215h270l-16 74q-14 63 20 88q37 25 82 -14l326 -281l-326 -281q-45 -39 -82 -14q-35 25 -20 88l16 74h-270 v-232l74 17q63 14 88 -21q25 -37 -15 -82l-280 -325l-281 325q-39 45 -14 82q25 35 88 21l74 -17v232h-271l17 -74q14 -63 -21 -88q-37 -25 -82 14z" />
<glyph unicode="&#xfc;" horiz-adv-x="1691" d="M31 725l325 281q45 39 82 14q35 -25 21 -88l-17 -74h271v215l-74 -16q-63 -14 -88 20q-25 37 14 82l281 326l280 -326q39 -45 15 -82q-25 -35 -88 -20l-74 16v-215h270l-16 74q-14 63 20 88q37 25 82 -14l326 -281l-326 -281q-45 -39 -82 -14q-35 25 -20 88l16 74h-270 v-232l74 17q63 14 88 -21q25 -37 -15 -82l-280 -325l-281 325q-39 45 -14 82q25 35 88 21l74 -17v232h-271l17 -74q14 -63 -21 -88q-37 -25 -82 14z" />
<glyph unicode="&#xfd;" horiz-adv-x="1691" d="M31 725l325 281q45 39 82 14q35 -25 21 -88l-17 -74h271v215l-74 -16q-63 -14 -88 20q-25 37 14 82l281 326l280 -326q39 -45 15 -82q-25 -35 -88 -20l-74 16v-215h270l-16 74q-14 63 20 88q37 25 82 -14l326 -281l-326 -281q-45 -39 -82 -14q-35 25 -20 88l16 74h-270 v-232l74 17q63 14 88 -21q25 -37 -15 -82l-280 -325l-281 325q-39 45 -14 82q25 35 88 21l74 -17v232h-271l17 -74q14 -63 -21 -88q-37 -25 -82 14z" />
<glyph unicode="&#xfe;" horiz-adv-x="1691" d="M31 725l325 281q45 39 82 14q35 -25 21 -88l-17 -74h271v215l-74 -16q-63 -14 -88 20q-25 37 14 82l281 326l280 -326q39 -45 15 -82q-25 -35 -88 -20l-74 16v-215h270l-16 74q-14 63 20 88q37 25 82 -14l326 -281l-326 -281q-45 -39 -82 -14q-35 25 -20 88l16 74h-270 v-232l74 17q63 14 88 -21q25 -37 -15 -82l-280 -325l-281 325q-39 45 -14 82q25 35 88 21l74 -17v232h-271l17 -74q14 -63 -21 -88q-37 -25 -82 14z" />
<glyph unicode="&#x152;" horiz-adv-x="2177" d="M86 715q0 348 186 549q178 193 459 192q246 0 359 -156v134h964v-334h-684v-191h404v-329h-404v-246h698v-334h-978v133q-113 -156 -363 -156q-281 0 -457 191q-184 199 -184 547zM498 719q0 -193 66.5 -294t187.5 -101q249 0 249 391q0 193 -66.5 294t-186.5 101 q-250 0 -250 -391z" />
<glyph unicode="&#x153;" horiz-adv-x="1765" d="M72 539q0 270 143 419q135 139 356 140q229 0 334 -152q115 152 320 152q217 0 340 -148q129 -155 129 -446q0 -53 -2 -72h-631q18 -172 182 -172q133 0 279 76l141 -236q-211 -123 -428 -123t-336 156q-131 -156 -328 -156q-221 0 -356 142q-143 152 -143 420zM436 539 q0 -262 146 -263q145 1 145 263q0 260 -145 260t-146 -260zM1061 662h307q-14 86 -47 122q-39 41 -117 41q-125 0 -143 -163z" />
<glyph unicode="&#x2c6;" horiz-adv-x="1024" d="M98 1219l269 327h290l269 -327h-246l-170 131l-170 -131h-242z" />
<glyph unicode="&#x2dc;" horiz-adv-x="1024" d="M84 1219q0 139 72.5 230t195.5 91q96 0 183 -51q100 -59 124 -59q63 0 76 104h211q0 -139 -72.5 -230.5t-195.5 -91.5q-96 0 -182 52q-100 59 -125 59q-61 0 -76 -104h-211z" />
<glyph unicode="&#x2000;" horiz-adv-x="946" />
<glyph unicode="&#x2001;" horiz-adv-x="1892" />
<glyph unicode="&#x2002;" horiz-adv-x="946" />
<glyph unicode="&#x2003;" horiz-adv-x="1892" />
<glyph unicode="&#x2004;" horiz-adv-x="630" />
<glyph unicode="&#x2005;" horiz-adv-x="473" />
<glyph unicode="&#x2006;" horiz-adv-x="315" />
<glyph unicode="&#x2007;" horiz-adv-x="315" />
<glyph unicode="&#x2008;" horiz-adv-x="236" />
<glyph unicode="&#x2009;" horiz-adv-x="378" />
<glyph unicode="&#x200a;" horiz-adv-x="105" />
<glyph unicode="&#x2010;" horiz-adv-x="991" d="M139 541v385h713v-385h-713z" />
<glyph unicode="&#x2011;" horiz-adv-x="991" d="M139 541v385h713v-385h-713z" />
<glyph unicode="&#x2012;" horiz-adv-x="991" d="M139 541v385h713v-385h-713z" />
<glyph unicode="&#x2013;" horiz-adv-x="1021" d="M139 549v369h770v-369h-770z" />
<glyph unicode="&#x2014;" horiz-adv-x="1343" d="M139 549v369h1065v-369h-1065z" />
<glyph unicode="&#x2018;" horiz-adv-x="663" d="M84 782l197 652h251l-28 -652h-420z" />
<glyph unicode="&#x2019;" horiz-adv-x="663" d="M131 782l29 652h420l-197 -652h-252z" />
<glyph unicode="&#x201a;" horiz-adv-x="663" d="M125 -223l29 651h419l-196 -651h-252z" />
<glyph unicode="&#x201c;" horiz-adv-x="1245" d="M84 782l197 652h251l-28 -652h-420zM666 782l196 652h252l-29 -652h-419z" />
<glyph unicode="&#x201d;" horiz-adv-x="1245" d="M131 782l29 652h420l-197 -652h-252zM713 782l28 652h420l-196 -652h-252z" />
<glyph unicode="&#x201e;" horiz-adv-x="1245" d="M125 -223l29 651h419l-196 -651h-252zM707 -223l28 651h420l-197 -651h-251z" />
<glyph unicode="&#x2022;" horiz-adv-x="1206" d="M133 750q0 199 135 336t334 137t335 -137t136 -336t-136 -334t-335 -135t-334 135t-135 334z" />
<glyph unicode="&#x2026;" horiz-adv-x="1929" d="M86 213q0 100 66.5 165.5t169.5 65.5q102 0 168.5 -65.5t66.5 -165.5t-66.5 -168t-168.5 -68q-100 0 -168 68t-68 168zM729 213q0 100 66.5 165.5t169.5 65.5q102 0 168.5 -65.5t66.5 -165.5t-66.5 -168t-168.5 -68q-100 0 -168 68t-68 168zM1372 213q0 100 66.5 165.5 t169.5 65.5q102 0 168.5 -65.5t66.5 -165.5t-66.5 -168t-168.5 -68q-100 0 -168 68t-68 168z" />
<glyph unicode="&#x202f;" horiz-adv-x="378" />
<glyph unicode="&#x2039;" horiz-adv-x="804" d="M61 537l261 538h399l-268 -536l268 -539h-399z" />
<glyph unicode="&#x203a;" horiz-adv-x="804" d="M84 0l268 537l-268 538h399l260 -536l-260 -539h-399z" />
<glyph unicode="&#x205f;" horiz-adv-x="473" />
<glyph unicode="&#x25fc;" horiz-adv-x="1075" d="M0 0v1075h1075v-1075h-1075z" />
</font>
</defs>
</svg>
